<svg xmlns="http://www.w3.org/2000/svg" width="1266.988" height="1111.988" viewBox="0 0 1266.988 1111.988">
  <g id="Grupo_172" data-name="Grupo 172" transform="translate(0.693 0.5)">
    <g id="Grupo_166" data-name="Grupo 166" transform="translate(637.916)">
      <path id="Caminho_1270" data-name="Caminho 1270" d="M1657.067,653.091h-62.031l-52.909-151.223-1.134-3.239-1.126,3.242-52.533,151.221h-62.04l-87.471-263.55H1412.6l45.76,151.923,1.091,3.62,1.19-3.589L1511.3,388.786h61.266L1623.224,541.5l1.19,3.589,1.09-3.621,45.761-151.923h73.277Z" transform="translate(-1337.823 -388.786)" fill="rgba(0,0,0,0)" stroke="#C82935" stroke-width="1"/>
      <path id="Caminho_1271" data-name="Caminho 1271" d="M1622.119,650.58H1410.248V388.918h209.983V448.77H1480.281v42.375h126.747v55.321H1480.281v44.268h141.837Z" transform="translate(-994.24 -388.163)" fill="rgba(0,0,0,0)" stroke="#C82935" stroke-width="1"/>
    </g>
    <g id="Grupo_167" data-name="Grupo 167" transform="translate(73.858 276.57)">
      <path id="Caminho_1272" data-name="Caminho 1272" d="M1489.682,699.724H1404.7l-66.036-97.549-.858-1.267-1.023,1.138L1310,631.847l-.306.341v67.536h-70.789V438.061h70.789v109.2l2.108-2.485,90.554-106.712h83.559L1387.7,549.62l-.616.7.527.768Z" transform="translate(-1238.906 -432.781)" fill="rgba(0,0,0,0)" stroke="#C82935" stroke-width="1"/>
      <path id="Caminho_1273" data-name="Caminho 1273" d="M1530.046,699.724H1467.7L1355.268,555.333l-2.14-2.749V699.724h-70.033V438.061h66.486l108.285,139.111,2.14,2.75V438.061h70.039Z" transform="translate(-1030.337 -432.781)" fill="rgba(0,0,0,0)" stroke="#C82935" stroke-width="1"/>
      <path id="Caminho_1274" data-name="Caminho 1274" d="M1469.967,709.359a149.7,149.7,0,0,1-56.091-10.587,138.977,138.977,0,0,1-23.942-12.432,135.072,135.072,0,0,1-20.606-16.482,132.1,132.1,0,0,1-37.274-68.454,138.063,138.063,0,0,1-2.729-27.4v-.755a136.993,136.993,0,0,1,2.761-27.428,133.464,133.464,0,0,1,37.619-68.8,137.024,137.024,0,0,1,20.746-16.623,140.326,140.326,0,0,1,24.064-12.554,145.688,145.688,0,0,1,26.912-7.937,154.8,154.8,0,0,1,29.294-2.768,149.7,149.7,0,0,1,56.091,10.587,138.975,138.975,0,0,1,23.942,12.432,135.057,135.057,0,0,1,20.606,16.482,132.107,132.107,0,0,1,37.274,68.454,138.081,138.081,0,0,1,2.728,27.4v.755a137.015,137.015,0,0,1-2.761,27.429,133.455,133.455,0,0,1-37.619,68.8,137.016,137.016,0,0,1-20.746,16.622,140.305,140.305,0,0,1-24.064,12.553,145.674,145.674,0,0,1-26.912,7.936A154.8,154.8,0,0,1,1469.967,709.359Zm0-208.6c-38.747,0-67.966,30.839-67.966,71.734v.755c0,40.648,30.186,72.49,68.72,72.49,38.959,0,68.338-30.839,68.338-71.735v-.755C1539.059,532.6,1508.71,500.759,1469.967,500.759Z" transform="translate(-812.129 -437.138)" fill="rgba(0,0,0,0)" stroke="#C82935" stroke-width="1"/>
      <path id="Caminho_1275" data-name="Caminho 1275" d="M1695.649,702.234h-62.031l-52.909-151.218-1.133-3.239-1.126,3.242-52.527,151.215h-62.041l-87.475-263.55h74.781l45.766,151.928,1.091,3.62,1.19-3.589,50.652-152.715h61.273l50.646,152.715,1.191,3.589,1.091-3.621,45.767-151.928h73.276Z" transform="translate(-591.656 -433.404)" fill="rgba(0,0,0,0)" stroke="#C82935" stroke-width="1"/>
    </g>
    <g id="Grupo_168" data-name="Grupo 168" transform="translate(135.048 561.063)">
      <path id="Caminho_1276" data-name="Caminho 1276" d="M1569.157,751.372H1507.12l-52.909-151.217-1.133-3.239-1.126,3.242-52.528,151.215h-62.034l-87.482-263.545H1324.7l45.767,151.923,1.091,3.621,1.19-3.589,50.646-152.709h61.273l50.652,152.709,1.19,3.589,1.09-3.62,45.766-151.923h73.277Z" transform="translate(-1249.908 -485.941)" fill="rgba(0,0,0,0)" stroke="#C82935" stroke-width="1"/>
      <path id="Caminho_1277" data-name="Caminho 1277" d="M1560.231,748.868h-70.788V648.523h-96.325V748.868h-70.783V487.2h70.783v98.829h96.325V487.2h70.788Z" transform="translate(-906.315 -485.317)" fill="rgba(0,0,0,0)" stroke="#C82935" stroke-width="1"/>
      <path id="Caminho_1278" data-name="Caminho 1278" d="M1657.138,750.425h-75.852l-18.932-46.411-.3-.745h-103.47l-.3.752-18.557,46.4h-74.342l111.4-263.55h68.952ZM1510.7,569.178,1509.581,572l-29.795,75.068-.65,1.638h62.734l-.64-1.633L1511.807,572Z" transform="translate(-705.439 -486.875)" fill="rgba(0,0,0,0)" stroke="#C82935" stroke-width="1"/>
      <path id="Caminho_1279" data-name="Caminho 1279" d="M1557.224,748.868h-70.794V548.939h-79.215V487.2h229.225v61.734h-79.215V748.868Z" transform="translate(-505.692 -485.317)" fill="rgba(0,0,0,0)" stroke="#C82935" stroke-width="1"/>
    </g>
    <g id="Grupo_169" data-name="Grupo 169" transform="translate(0 838.76)">
      <path id="Caminho_1280" data-name="Caminho 1280" d="M1545.546,800.521H1483.51l-52.9-151.217-1.133-3.239-1.126,3.241-52.539,151.215h-62.035L1226.3,536.971h74.787l45.761,151.922,1.091,3.62,1.19-3.589,50.658-152.709h61.267L1511.7,688.925l1.19,3.589,1.09-3.621,45.761-151.922h73.277Z" transform="translate(-1226.298 -531.686)" fill="rgba(0,0,0,0)" stroke="#C82935" stroke-width="1"/>
      <path id="Caminho_1281" data-name="Caminho 1281" d="M1510.594,798.01h-211.87V536.348h209.983v59.846h-139.95v42.381H1495.5V693.9H1368.757v44.263h141.837Z" transform="translate(-882.71 -531.063)" fill="rgba(0,0,0,0)" stroke="#C82935" stroke-width="1"/>
      <path id="Caminho_1282" data-name="Caminho 1282" d="M1452.215,798.01h-99.148V536.348h100.659c22.919,0,44.006,3.235,62.677,9.614,17.976,6.142,33.581,15.146,46.381,26.761a114.172,114.172,0,0,1,28.817,40.869c6.588,15.774,9.928,33.3,9.928,52.077v.755a135.441,135.441,0,0,1-10.057,52.432,117.781,117.781,0,0,1-29.163,41.653c-12.978,11.932-28.746,21.2-46.867,27.537C1496.54,794.658,1475.268,798.01,1452.215,798.01Zm-28.354-199.174V735.522h30.992c45.648,0,74.005-26.043,74.005-67.966V666.8c0-41.923-28.357-67.966-74.005-67.966h-30.992Z" transform="translate(-626.214 -531.063)" fill="rgba(0,0,0,0)" stroke="#C82935" stroke-width="1"/>
      <path id="Caminho_1283" data-name="Caminho 1283" d="M1538.622,807.651a149.69,149.69,0,0,1-56.091-10.588,138.964,138.964,0,0,1-23.942-12.433,135.074,135.074,0,0,1-20.606-16.483,132.106,132.106,0,0,1-37.274-68.454,138.032,138.032,0,0,1-2.729-27.4v-.755a137.024,137.024,0,0,1,2.761-27.43,133.467,133.467,0,0,1,37.62-68.8,136.992,136.992,0,0,1,20.746-16.623,140.308,140.308,0,0,1,24.063-12.554,145.68,145.68,0,0,1,26.912-7.937,154.8,154.8,0,0,1,29.294-2.768,149.688,149.688,0,0,1,56.09,10.588,138.971,138.971,0,0,1,23.942,12.433,135.073,135.073,0,0,1,20.606,16.484,132.111,132.111,0,0,1,37.274,68.457,138.065,138.065,0,0,1,2.729,27.4v.755a137.016,137.016,0,0,1-2.761,27.429,133.454,133.454,0,0,1-37.622,68.8,136.984,136.984,0,0,1-20.746,16.622,140.3,140.3,0,0,1-24.064,12.553,145.662,145.662,0,0,1-26.911,7.936A154.8,154.8,0,0,1,1538.622,807.651Zm0-208.6c-38.746,0-67.965,30.839-67.965,71.734v.755c0,40.648,30.186,72.489,68.72,72.489,38.962,0,68.343-30.839,68.343-71.734v-.755C1607.72,630.892,1577.368,599.051,1538.622,599.051Z" transform="translate(-414.224 -535.424)" fill="rgba(0,0,0,0)" stroke="#C82935" stroke-width="1"/>
    </g>
  </g>
</svg>
